<?xml version="1.0" standalone="no"?>
<!DOCTYPE svg PUBLIC "-//W3C//DTD SVG 20010904//EN"
 "http://www.w3.org/TR/2001/REC-SVG-20010904/DTD/svg10.dtd">
<svg version="1.0" xmlns="http://www.w3.org/2000/svg"
 width="329.000000pt" height="330.000000pt" viewBox="0 0 329.000000 330.000000"
 preserveAspectRatio="xMidYMid meet">
<metadata>
Created by potrace 1.16, written by Peter Selinger 2001-2019
</metadata>
<g transform="translate(0.000000,330.000000) scale(0.100000,-0.100000)"
fill="#000000" stroke="none">
<path d="M395 2695 c5 -21 4 -26 -3 -16 -8 11 -11 10 -16 -7 -7 -22 -27 -34
-64 -38 -12 -2 -36 -17 -53 -33 -17 -17 -36 -31 -42 -31 -7 0 -34 -12 -62 -25
-27 -14 -59 -25 -70 -25 -19 -1 -19 -1 -2 -14 14 -11 46 -13 140 -9 117 5 125
5 178 -21 31 -14 60 -26 65 -26 5 0 35 -14 67 -31 32 -17 60 -29 62 -27 8 8
-41 55 -63 62 -15 5 -25 18 -29 37 -3 16 -13 35 -22 42 -9 7 -27 25 -40 39
-20 22 -22 30 -12 42 7 8 9 21 5 27 -4 8 -3 9 4 5 21 -13 12 8 -19 44 l-30 35
6 -30z"/>
<path d="M1014 2631 c-84 -30 -191 -122 -178 -154 12 -31 86 -47 149 -31 l30
7 -20 -23 c-11 -13 -15 -20 -8 -17 6 4 22 3 35 -2 12 -6 17 -10 10 -10 -7 -1
-17 -13 -23 -28 -10 -26 -11 -27 -24 -10 -8 12 -15 14 -20 8 -3 -6 -1 -11 5
-11 7 0 5 -6 -4 -15 -8 -8 -19 -15 -25 -15 -14 0 -32 -35 -23 -45 4 -5 2 -5
-4 -2 -16 9 -44 -36 -38 -61 3 -11 1 -23 -5 -26 -6 -4 -11 -16 -11 -27 0 -16
5 -18 28 -13 15 4 50 18 77 32 39 20 65 25 118 25 37 0 73 -5 79 -11 6 -6 17
-8 24 -5 8 3 14 1 14 -5 0 -11 -71 -22 -139 -22 -57 0 -112 -34 -140 -87 -21
-40 -11 -44 24 -8 25 24 54 40 96 52 77 21 93 9 48 -36 -29 -29 -31 -36 -27
-82 4 -41 11 -56 34 -75 67 -54 175 -5 174 79 0 12 -9 41 -20 65 -15 34 -16
42 -5 42 22 0 95 -31 95 -40 0 -5 9 -11 19 -15 21 -6 41 -53 41 -94 0 -25 -34
-58 -54 -53 -5 2 -15 -6 -23 -18 -8 -11 -20 -20 -28 -20 -8 0 -19 -9 -25 -20
-10 -18 -8 -19 22 -13 18 3 40 12 49 19 8 8 22 14 31 14 20 0 68 38 68 54 0 7
8 24 19 37 10 13 20 33 23 44 2 13 10 19 22 17 11 -2 22 2 26 8 4 6 19 12 34
14 27 3 50 19 52 37 1 5 2 16 3 24 0 9 7 15 14 13 6 -1 22 3 35 10 12 7 30 11
40 8 9 -3 22 -7 27 -8 26 -5 65 -66 65 -103 0 -51 132 -182 225 -223 124 -55
308 -74 345 -35 17 19 17 20 -31 32 -27 7 -49 17 -49 22 0 5 -8 9 -17 9 -12 0
-9 5 11 15 15 8 36 15 45 15 26 0 79 62 82 95 4 55 -1 83 -17 100 -23 22 -10
30 25 16 36 -16 76 -57 90 -94 10 -26 8 -32 -19 -57 -33 -31 -37 -40 -16 -40
14 0 26 -21 26 -43 0 -7 -18 -20 -41 -30 -48 -21 -47 -43 2 -39 38 3 166 47
186 64 8 6 16 8 20 5 3 -4 14 -2 24 4 16 8 19 6 19 -10 0 -11 5 -23 10 -26 6
-3 10 -1 10 4 0 15 40 -20 50 -44 8 -19 9 -19 9 2 1 12 -5 26 -13 30 -8 5 -11
15 -7 27 6 15 12 9 29 -32 12 -28 22 -60 22 -71 0 -12 4 -29 9 -39 23 -46 30
-72 33 -128 4 -56 3 -60 -11 -46 -15 14 -16 14 -19 -2 -2 -10 3 -25 12 -35 19
-21 20 -31 4 -31 -7 0 -24 18 -37 39 -14 24 -29 37 -37 34 -10 -4 -11 -10 -3
-25 12 -22 0 -19 -33 9 -17 15 -35 2 -23 -17 9 -14 -166 -3 -191 12 -5 4 -33
10 -62 14 -28 3 -57 13 -63 20 -6 8 -18 14 -25 14 -16 0 -46 16 -83 43 -29 21
-47 10 -56 -34 -8 -36 -25 -47 -32 -21 -3 11 -16 22 -31 26 -45 9 -115 25
-144 32 -27 6 -34 -1 -29 -30 1 -4 -9 -6 -22 -2 -13 3 -27 3 -31 -1 -4 -4 -26
-8 -49 -9 -23 -1 -87 -5 -142 -8 -58 -3 -123 -1 -155 5 -30 6 -93 11 -140 11
-97 0 -157 -20 -202 -70 -22 -24 -25 -32 -15 -45 10 -14 38 -18 150 -21 106
-4 147 -9 181 -24 24 -11 47 -25 50 -31 4 -6 16 -11 27 -11 17 0 24 -11 20
-32 0 -5 6 -8 14 -8 8 0 15 -7 15 -15 0 -8 5 -16 10 -16 6 -1 16 -2 23 -3 6
-1 17 2 24 7 7 5 17 6 24 2 19 -12 151 -5 203 10 33 10 94 15 186 15 l138 0
30 -47 c17 -26 29 -51 26 -55 -10 -15 -36 -8 -55 15 -21 25 -26 11 -6 -18 18
-26 11 -106 -8 -99 -7 3 -22 -3 -32 -13 -11 -11 -25 -17 -32 -15 -7 2 -27 -3
-44 -11 -18 -8 -48 -21 -67 -29 l-34 -15 72 -6 c67 -7 75 -5 131 24 33 18 92
60 131 95 39 35 75 64 81 64 6 0 -12 -25 -40 -56 -28 -30 -51 -62 -51 -69 0
-7 -17 -27 -37 -44 -21 -17 -47 -40 -58 -50 -11 -10 -31 -22 -45 -26 -14 -4
-34 -15 -45 -25 -11 -9 -52 -29 -90 -44 -130 -49 -378 -46 -665 7 -69 13 -145
33 -169 45 -56 27 -64 27 -56 1 5 -15 4 -19 -4 -15 -6 4 -11 3 -11 -2 0 -5
-17 -13 -37 -18 -27 -6 -38 -14 -37 -27 2 -18 -12 -24 -18 -6 -5 14 -38 0 -38
-17 0 -8 4 -14 9 -14 5 0 9 -11 9 -25 -1 -16 13 -38 37 -61 42 -39 79 -87 94
-121 6 -13 15 -23 20 -23 5 0 14 -14 20 -30 5 -17 17 -30 26 -30 18 0 55 -56
55 -83 0 -30 -28 -74 -51 -80 -11 -3 -18 -10 -14 -16 3 -6 -2 -11 -12 -12 -10
0 -40 -1 -68 -2 -29 -1 -55 -8 -61 -16 -6 -8 -18 -11 -28 -8 -10 4 -16 1 -16
-8 0 -11 -7 -12 -31 -5 -18 5 -35 7 -39 5 -5 -3 -11 3 -14 12 -6 15 -8 15 -16
3 -8 -12 -10 -12 -10 4 0 14 -3 16 -13 7 -16 -13 -45 7 -106 74 -13 14 -30 24
-38 21 -7 -3 -13 -2 -13 3 0 5 -9 20 -21 35 -20 25 -22 26 -36 9 -13 -17 -14
-17 -8 4 4 16 0 25 -15 33 -11 6 -20 18 -21 28 0 14 -2 14 -9 -3 l-8 -20 -8
20 c-4 11 -10 22 -13 25 -3 3 -12 16 -19 29 -12 21 -12 23 2 18 9 -4 16 -2 16
3 0 6 -4 10 -10 10 -5 0 -10 11 -10 25 0 14 -4 25 -9 25 -5 0 -8 8 -7 18 1 12
-6 17 -23 16 -22 -1 -23 0 -6 13 11 7 13 13 6 13 -7 0 -9 5 -6 10 3 6 2 10 -4
10 -5 0 -12 -6 -15 -12 -3 -7 -4 1 -1 17 4 20 3 25 -4 16 -12 -19 -31 -5 -29
22 1 12 -4 39 -11 59 -7 21 -9 43 -5 49 4 8 3 9 -4 5 -8 -5 -12 4 -13 28 -2
48 -3 53 -12 62 -4 4 -7 18 -7 30 0 13 -4 26 -10 29 -13 8 -13 -49 0 -73 13
-23 40 -142 40 -175 0 -15 4 -35 9 -45 5 -9 13 -28 18 -42 43 -112 137 -265
182 -297 12 -8 21 -19 21 -25 0 -7 29 -39 65 -72 107 -102 205 -171 253 -182
15 -3 37 -7 49 -10 12 -2 34 -14 50 -27 27 -23 94 -50 163 -67 19 -4 62 -16
95 -25 122 -34 274 -38 465 -12 63 9 135 23 159 31 24 9 52 16 62 16 11 0 19
5 19 11 0 14 73 44 145 60 33 7 72 20 86 29 45 26 139 113 139 127 0 7 11 19
25 25 17 8 24 17 20 29 -6 17 18 49 36 49 5 0 9 6 9 14 0 7 11 25 25 40 14 15
32 42 40 59 8 18 19 39 24 47 32 49 86 188 120 305 42 148 79 583 53 631 -6
11 -16 58 -22 104 -6 47 -15 89 -20 95 -12 15 -89 268 -112 365 -10 46 -26 92
-34 101 -16 17 -19 49 -5 49 5 0 11 -12 13 -27 3 -27 4 -26 25 17 32 69 62 94
139 115 75 21 125 23 250 10 56 -5 87 -4 102 4 29 15 29 41 1 34 -14 -4 -25 0
-31 11 -5 9 -15 16 -23 16 -8 0 -19 9 -25 20 -6 11 -17 20 -25 20 -7 0 -20 6
-27 13 -7 7 -26 18 -42 25 -24 11 -32 10 -51 -2 -12 -8 -39 -19 -61 -25 -47
-12 -124 -67 -124 -87 0 -8 -6 -14 -13 -14 -7 0 -20 -9 -30 -20 -18 -22 -41
-27 -35 -8 7 19 -46 70 -65 62 -9 -3 -17 -2 -17 4 0 6 6 12 13 15 8 3 4 11
-11 22 -14 10 -21 23 -17 34 3 11 -4 26 -20 41 -14 13 -25 29 -25 37 0 7 -5
13 -11 13 -6 0 -30 14 -54 30 -52 36 -84 38 -180 10 -69 -20 -177 -68 -183
-82 -2 -5 -12 -8 -22 -8 -11 0 -23 -6 -27 -13 -4 -7 -28 -21 -53 -31 -25 -10
-52 -22 -60 -27 -8 -5 -31 -16 -50 -25 -19 -9 -46 -21 -59 -27 -21 -10 -181
-13 -221 -4 -8 2 -37 7 -65 11 -76 11 -137 28 -154 44 -9 7 -49 44 -90 82 -41
38 -86 74 -100 82 -14 7 -28 16 -31 19 -8 11 -116 39 -147 39 -15 -1 -51 -9
-79 -19z m1222 -562 c-46 -55 -47 -101 -1 -153 14 -16 25 -31 25 -33 0 -13
-99 14 -144 38 -64 35 -73 52 -47 87 39 56 101 90 164 91 l29 1 -26 -31z"/>
<path d="M1165 1645 c-42 -24 -149 -82 -200 -109 -16 -9 -42 -16 -57 -16 -15
0 -33 -6 -40 -13 -7 -7 -22 -13 -33 -14 -68 -4 -140 -15 -156 -23 -10 -6 -27
-10 -38 -10 -12 0 -21 -5 -21 -11 0 -5 -4 -7 -10 -4 -5 3 -10 -3 -10 -15 0
-11 -7 -23 -16 -27 -8 -3 -13 -12 -10 -19 3 -7 1 -16 -4 -19 -16 -10 -12 -65
4 -65 21 0 38 -26 41 -62 2 -28 6 -33 29 -33 30 0 46 -18 46 -52 0 -13 9 -32
20 -43 11 -11 20 -27 20 -35 0 -7 7 -18 16 -23 11 -6 15 -17 11 -31 -3 -14 0
-21 9 -21 8 0 14 -5 14 -12 0 -6 3 -8 7 -5 3 4 12 2 18 -3 9 -8 14 -6 19 5 7
18 36 20 36 3 0 -10 2 -10 8 0 5 7 16 10 24 7 8 -3 17 0 20 7 9 26 8 98 -1
117 -8 14 -6 22 8 35 14 13 20 14 23 5 3 -10 11 -10 37 0 l32 14 -37 38 c-45
47 -42 73 8 58 18 -5 33 -9 33 -9 1 0 1 16 1 36 0 29 7 42 30 60 16 13 38 31
48 41 11 10 27 23 36 28 10 6 32 23 50 38 31 27 33 30 35 113 1 46 0 86 -4 88
-3 2 -24 -7 -46 -19z"/>
</g>
</svg>
