<?xml version="1.0" standalone="no"?>
<!DOCTYPE svg PUBLIC "-//W3C//DTD SVG 20010904//EN"
 "http://www.w3.org/TR/2001/REC-SVG-20010904/DTD/svg10.dtd">
<svg version="1.0" xmlns="http://www.w3.org/2000/svg"
 width="2400.000000pt" height="1300.000000pt" viewBox="0 0 2400.000000 1300.000000"
 preserveAspectRatio="xMidYMid meet">

<g transform="translate(0.000000,1300.000000) scale(0.100000,-0.100000)"
fill="#000000" stroke="none">
<path d="M11640 11190 c-519 -48 -944 -147 -1398 -326 -259 -102 -620 -294
-873 -464 -1089 -733 -1827 -1903 -2018 -3200 -39 -263 -46 -361 -46 -695 0
-333 7 -432 45 -693 115 -782 430 -1528 909 -2152 502 -654 1148 -1157 1904
-1480 347 -148 771 -266 1147 -319 289 -41 363 -46 685 -46 322 0 396 5 685
46 1044 147 2039 671 2757 1451 636 691 1046 1525 1192 2428 46 286 55 411 55
765 0 364 -9 484 -60 790 -161 958 -612 1830 -1304 2525 -498 501 -1086 873
-1747 1109 -358 127 -663 196 -1084 247 -156 19 -700 27 -849 14z m710 -1138
c0 -5 51 -14 113 -21 141 -16 320 -47 442 -77 120 -30 301 -86 350 -109 28
-13 73 -31 100 -39 28 -9 61 -21 75 -28 14 -6 39 -17 55 -24 108 -48 231 -107
235 -113 3 -4 25 -17 50 -30 25 -12 54 -27 64 -34 11 -7 45 -28 75 -47 31 -19
72 -42 91 -51 19 -10 49 -31 67 -48 18 -17 36 -31 42 -31 5 0 11 -4 13 -8 2
-4 39 -32 82 -62 44 -30 95 -70 115 -90 20 -19 54 -48 76 -65 52 -38 279 -266
330 -330 22 -27 53 -64 70 -81 36 -37 85 -94 85 -100 0 -3 5 -10 10 -17 6 -7
33 -43 60 -82 27 -38 60 -83 72 -99 23 -29 41 -58 54 -86 4 -8 26 -44 47 -80
22 -36 46 -80 54 -99 8 -19 25 -49 38 -65 12 -17 29 -47 38 -66 9 -19 28 -62
42 -95 45 -98 85 -199 85 -212 0 -6 8 -26 17 -45 29 -58 32 -65 53 -130 29
-91 48 -156 60 -213 6 -27 17 -75 25 -105 54 -221 80 -484 80 -815 0 -137 -6
-306 -13 -375 -26 -251 -28 -265 -68 -440 -9 -36 -20 -85 -25 -110 -26 -112
-78 -269 -115 -343 -8 -16 -14 -36 -14 -46 0 -9 -6 -25 -13 -36 -7 -11 -19
-38 -26 -60 -8 -22 -27 -69 -43 -105 -16 -36 -36 -79 -43 -95 -8 -17 -25 -47
-39 -68 -14 -21 -35 -56 -46 -80 -11 -23 -25 -49 -30 -57 -5 -8 -34 -57 -65
-108 -30 -51 -60 -98 -65 -105 -40 -47 -54 -65 -68 -90 -9 -15 -20 -27 -24
-27 -4 0 -8 -5 -8 -11 0 -14 -53 -83 -97 -127 -18 -18 -51 -57 -72 -86 -22
-29 -67 -80 -100 -112 -76 -74 -74 -73 -108 -110 -28 -30 -101 -95 -164 -144
-18 -14 -41 -36 -53 -49 -27 -30 -122 -101 -136 -101 -5 0 -10 -3 -10 -7 0 -5
-27 -25 -60 -47 -33 -21 -60 -41 -60 -45 0 -3 -17 -15 -37 -26 -21 -10 -45
-24 -53 -31 -24 -19 -209 -124 -219 -124 -5 0 -13 -6 -19 -13 -13 -16 -123
-71 -267 -133 -22 -9 -81 -31 -132 -49 -51 -17 -98 -37 -105 -43 -7 -6 -27
-13 -43 -17 -17 -4 -46 -12 -65 -20 -19 -7 -53 -17 -75 -23 -208 -54 -269 -67
-375 -82 -47 -6 -125 -18 -175 -26 -192 -31 -774 -28 -965 5 -30 5 -93 15
-140 21 -84 12 -158 28 -256 56 -28 7 -57 14 -66 14 -19 0 -218 64 -243 78
-11 6 -40 18 -65 26 -157 52 -331 133 -515 240 -22 13 -62 36 -90 52 -27 15
-56 33 -63 41 -7 7 -18 13 -23 13 -9 0 -180 122 -226 160 -7 5 -15 10 -18 10
-6 0 -45 32 -89 74 -17 15 -51 45 -76 65 -25 20 -67 56 -93 81 -27 25 -53 47
-58 48 -5 2 -9 10 -9 17 0 7 -19 28 -42 46 -24 19 -49 41 -55 50 -7 10 -31 36
-53 60 -22 24 -40 46 -40 50 0 4 -24 32 -53 63 -30 30 -71 81 -93 113 -21 32
-42 60 -46 61 -5 2 -8 8 -8 13 0 5 -7 17 -15 26 -47 54 -75 93 -100 138 -15
28 -32 57 -38 65 -16 20 -33 52 -74 132 -19 36 -41 72 -49 78 -8 7 -14 16 -14
21 0 7 -67 156 -94 209 -8 14 -21 50 -31 80 -10 30 -21 60 -25 65 -4 6 -11 25
-15 43 -3 17 -10 32 -15 32 -5 0 -12 10 -15 23 -4 12 -18 60 -32 107 -42 143
-50 173 -63 235 -6 33 -18 87 -25 120 -16 68 -40 226 -55 361 -13 118 -13 637
0 762 18 162 42 304 81 482 32 143 93 346 110 366 6 7 25 56 43 109 18 53 38
101 45 108 6 6 11 17 11 25 0 8 6 26 14 40 8 15 31 61 50 104 20 42 40 78 44
80 5 1 23 33 41 70 18 37 42 82 54 100 13 18 36 56 51 83 16 28 40 64 53 80
14 17 42 55 63 85 102 144 136 189 145 190 6 0 21 17 35 36 46 65 154 184 168
184 8 0 42 36 42 45 0 10 148 147 166 155 7 3 37 29 67 58 31 28 58 52 61 52
2 0 20 14 38 30 18 17 36 30 41 30 5 0 51 32 102 70 51 39 96 70 100 70 4 0
26 13 49 28 23 16 56 35 74 43 18 7 32 16 32 20 0 3 25 16 55 30 30 13 55 27
55 30 0 6 116 65 175 89 11 5 46 20 78 35 32 14 85 35 118 45 33 11 72 26 87
34 43 24 157 59 360 111 120 30 282 58 440 76 61 7 112 16 112 21 0 4 146 8
325 8 179 0 325 -4 325 -8z"/>
<path d="M13465 8706 c-145 -49 -1419 -523 -1455 -541 -128 -65 -206 -225
-179 -370 33 -181 194 -307 373 -292 47 3 226 65 786 272 398 147 736 273 750
280 52 27 107 85 141 147 32 60 34 68 34 163 0 117 -17 165 -86 240 -66 71
-146 108 -244 112 -49 2 -95 -2 -120 -11z"/>
<path d="M13125 7434 c-363 -134 -663 -245 -666 -246 -5 -3 477 -1325 487
-1337 5 -6 1324 481 1331 492 5 9 -478 1337 -487 1336 -3 0 -302 -110 -665
-245z"/>
<path d="M10770 6376 c-762 -282 -1396 -518 -1410 -525 -104 -56 -205 -173
-248 -290 -33 -90 -40 -222 -17 -311 68 -262 317 -432 585 -399 48 6 428 141
1455 519 765 281 1393 515 1397 518 8 9 -356 995 -368 998 -5 1 -632 -229
-1394 -510z"/>
<path d="M14512 6023 c-38 -5 -1420 -511 -1499 -549 -69 -33 -145 -118 -173
-192 -31 -81 -25 -205 14 -280 37 -72 96 -128 173 -164 54 -26 77 -31 141 -31
76 0 87 4 799 266 397 146 741 276 763 287 61 31 118 94 152 167 70 148 23
331 -110 428 -71 52 -173 79 -260 68z"/>
</g>
</svg>
