<?xml version="1.0" standalone="no"?>
<!DOCTYPE svg PUBLIC "-//W3C//DTD SVG 20010904//EN"
 "http://www.w3.org/TR/2001/REC-SVG-20010904/DTD/svg10.dtd">
<svg version="1.0" xmlns="http://www.w3.org/2000/svg"
 width="1558.000000pt" height="1110.000000pt" viewBox="0 0 1558.000000 1110.000000"
 preserveAspectRatio="xMidYMid meet">

<g transform="translate(0.000000,1110.000000) scale(0.100000,-0.100000)"
fill="#000000" stroke="none">
<path d="M11445 11032 c-27 -11 -360 -133 -740 -273 -444 -163 -705 -264 -734
-284 -63 -44 -117 -126 -138 -209 -40 -163 42 -333 195 -404 50 -24 69 -27
152 -26 l95 0 695 258 c382 141 721 269 753 283 74 33 148 112 177 191 31 81
25 215 -12 287 -35 68 -101 133 -168 164 -73 34 -201 40 -275 13z"/>
<path d="M11120 9765 c-360 -134 -658 -245 -662 -247 -11 -5 483 -1338 496
-1338 6 0 308 110 671 244 471 174 659 247 657 257 -13 56 -489 1329 -497
1328 -5 -1 -305 -111 -665 -244z"/>
<path d="M6880 9454 c-19 -2 -91 -9 -160 -15 -69 -6 -203 -24 -298 -40 -693
-115 -1360 -401 -1927 -825 -469 -350 -878 -806 -1172 -1304 -84 -143 -94
-162 -88 -168 3 -4 261 -8 573 -9 l567 -3 70 92 c91 120 401 431 535 537 466
369 969 600 1545 711 177 34 346 51 560 56 l200 6 818 301 c449 165 817 304
817 308 0 3 -65 31 -145 62 -398 155 -830 253 -1269 287 -117 9 -540 12 -626
4z"/>
<path d="M8763 8705 c-1046 -386 -1405 -522 -1447 -550 -150 -99 -236 -264
-236 -453 0 -252 177 -465 430 -518 105 -22 186 -12 334 40 158 56 2690 988
2694 992 7 5 -363 997 -373 1000 -5 1 -636 -228 -1402 -511z"/>
<path d="M12475 8345 c-59 -16 -1415 -515 -1467 -539 -66 -31 -116 -84 -154
-161 -33 -66 -37 -82 -36 -152 0 -110 28 -181 101 -254 75 -74 145 -102 256
-102 80 0 81 0 813 271 403 149 748 280 767 292 18 11 49 38 69 60 183 202 83
524 -183 586 -69 17 -102 17 -166 -1z"/>
<path d="M50 4890 l0 -1960 680 0 680 0 0 762 c0 419 3 758 7 754 4 -4 154
-345 334 -759 l328 -752 730 -3 c402 -1 731 -1 731 1 0 2 -286 582 -636 1288
-350 706 -637 1289 -637 1295 0 6 183 306 406 666 224 361 407 659 407 662 0
4 -198 5 -441 4 l-441 -3 -391 -633 -392 -632 -3 635 -2 635 -680 0 -680 0 0
-1960z"/>
<path d="M7170 4890 l0 -1961 1028 3 c1010 3 1028 4 1097 24 245 74 456 246
597 488 200 341 219 815 49 1172 -112 235 -269 408 -455 501 -39 19 -73 37
-76 40 -3 3 8 14 25 26 150 110 275 278 336 454 82 237 70 512 -32 732 -88
189 -232 342 -391 416 -145 66 -121 65 -1203 65 l-975 0 0 -1960z m1678 848
l2 -378 -190 0 -190 0 0 380 0 380 188 -2 187 -3 3 -377z m0 -1555 l-3 -518
-187 -3 -188 -2 0 520 0 520 190 0 190 0 -2 -517z"/>
<path d="M3650 4550 l0 -1630 899 0 c848 0 900 1 905 18 3 9 28 136 55 282 28
146 53 275 56 287 l5 23 -392 2 -393 3 -3 297 -2 298 323 2 323 3 -59 303 -59
302 -264 0 -264 0 0 415 0 415 395 0 395 0 -5 23 c-2 12 -28 141 -55 287 -28
146 -53 273 -56 283 -5 16 -57 17 -905 17 l-899 0 0 -1630z"/>
<path d="M5810 4550 l0 -1630 565 0 565 0 0 1630 0 1630 -565 0 -565 0 0
-1630z"/>
<path d="M12710 6175 c0 -2 212 -441 470 -975 l470 -971 0 -655 0 -654 525 0
525 0 0 698 0 699 389 864 c213 475 402 894 419 932 l31 67 -332 0 -333 0
-214 -481 c-118 -264 -217 -482 -220 -483 -3 -2 -111 214 -240 480 l-235 484
-627 0 c-346 0 -628 -2 -628 -5z"/>
<path d="M10263 5118 c3 -727 8 -1073 16 -1118 60 -343 186 -601 405 -828 291
-302 692 -400 1062 -260 271 103 505 332 655 643 61 128 77 169 109 292 47
178 50 262 50 1325 l0 998 -365 0 -365 0 0 -1330 0 -1330 -210 0 -210 0 0
1330 0 1330 -575 0 -576 0 4 -1052z"/>
<path d="M2986 2343 c372 -671 941 -1257 1608 -1658 1307 -785 2947 -843 4308
-153 761 385 1403 988 1837 1724 39 67 71 124 71 128 0 3 -260 6 -577 5 l-578
0 -60 -76 c-33 -42 -114 -133 -180 -201 -300 -313 -600 -534 -975 -721 -1243
-619 -2717 -445 -3791 446 -137 113 -364 344 -464 471 l-80 101 -578 0 -579 1
38 -67z"/>
</g>
</svg>
